<svg xmlns="http://www.w3.org/2000/svg" version="1.1" viewBox="-5.0 -10.0 110.0 135.0">
 <path d="m10.699 48.379c0.60156 1.2617 1.4805 1.9297 2.7383 1.8711 1.0312-0.058594 1.8086-0.73828 2.3906-1.7812 0.30078-0.51953 0.53125-1.1406 0.76172-1.8203 0.28125-0.67188 0.53125-1.4219 0.75-2.1992 0.94141-3.1289 2.0781-6.9688 3.6484-9.8281 3.5195-6.4297 9.0586-11.84 15.801-14.84 3.3516-1.5117 6.9414-2.4805 10.621-2.8711 3.6797-0.37891 7.4219-0.070312 11.02 0.73828 7.2383 1.5781 13.801 5.8789 18.5 11.629 4.7305 5.7812 7.2891 13.191 7.4102 20.648 0.03125 7.8086-2.6016 15.602-7.5586 21.66-4.9414 6.0586-11.98 10.32-19.629 11.879-7.6719 1.4805-15.82 0.32812-22.699-3.3594-6.8594-3.7188-12.379-9.8516-15.352-17.07-0.41016-1.2188-0.96094-2.5508-1.2188-3.9688-0.17187-0.69922-0.33984-1.3984-0.51172-2.0781-0.10938-0.69141-0.23828-1.3594-0.39062-1.9883-0.35938-1.2617-0.57031-2.3906-1.0508-3.2305-0.46875-0.83984-1.1289-1.3984-2.0508-1.4883-1-0.10156-1.6484 0.37891-2.0586 1.2812-0.21094 0.44922-0.35156 1-0.44922 1.6289-0.10938 0.62891-0.14844 1.3281-0.070313 2.0781 0.10938 1.4883 0.32812 3.1719 0.85156 4.7695 0.23828 0.80078 0.42188 1.6094 0.71094 2.3594 0.28125 0.75 0.55078 1.4688 0.80859 2.1289 3.1602 8.3008 9.1719 15.57 16.941 20 3.8594 2.2383 8.0898 3.8281 12.48 4.6797 4.3906 0.89062 8.9102 0.85156 13.32 0.21875 4.4102-0.67188 8.7305-2.0391 12.66-4.1719 3.9297-2.1211 7.4883-4.8984 10.512-8.1797 3.0117-3.2812 5.5195-7.0508 7.2695-11.16 1.7383-4.1094 2.7812-8.5117 3.1016-12.949 0.73828-8.9102-1.8789-17.98-6.8906-25.359-5.0312-7.4102-12.672-12.961-21.25-15.672-4.2891-1.3984-8.8398-1.8906-13.352-1.7812-4.5117 0.14844-9.0508 0.94922-13.301 2.6289-8.5 3.2812-15.98 9.3984-20.789 17.391-2.2812 3.6914-4.2305 8.8008-4.4297 13.031-0.039062 1.0508-0.019531 2.0391 0.070313 2.9102 0.17188 0.87891 0.39844 1.6484 0.69922 2.2812z"/></svg>