<svg xmlns="http://www.w3.org/2000/svg" data-name="Layer 1" viewBox="0 0 48 60" x="0px" y="0px"><path d="M43.2,8.61,38.33,3.33A1,1,0,0,0,37.6,3a1,1,0,0,0-.74.32L24,17.28,11.14,3.33a1,1,0,0,0-1.47,0L4.8,8.61A1,1,0,0,0,4.8,10L17.78,24,4.8,38.1a1,1,0,0,0,0,1.36l4.87,5.28a1,1,0,0,0,.73.32,1,1,0,0,0,.74-.32L24,30.78l12.86,14a1,1,0,0,0,.74.32,1,1,0,0,0,.73-.32l4.87-5.28a1,1,0,0,0,0-1.36L30.22,24,43.2,10A1,1,0,0,0,43.2,8.61ZM28.13,23.35a1,1,0,0,0,0,1.36l13,14.07-3.5,3.8L24.74,28.63a1,1,0,0,0-1.48,0l-12.86,14-3.5-3.8,13-14.07a1,1,0,0,0,0-1.36L6.9,9.28l3.5-3.8,12.86,14a1,1,0,0,0,1.48,0l12.86-14,3.5,3.8Z"/></svg>